<svg version="1.1" id="Layer_1" xmlns="http://www.w3.org/2000/svg" xmlns:xlink="http://www.w3.org/1999/xlink" x="0px" y="0px"
	 width="100%" viewBox="0 0 500 500" enable-background="new 0 0 500 500" xml:space="preserve">
<path fill="#FFFFFF" opacity="1.000000" stroke="none" 
	d="
M253.000000,501.000000 
	C169.034317,501.000000 85.068634,501.000000 1.051475,501.000000 
	C1.051475,334.435760 1.051475,167.871490 1.051475,1.000000 
	C104.355141,1.000000 207.710587,1.000000 311.332214,1.297780 
	C309.352295,3.211508 307.106201,4.827456 304.152832,6.952238 
	C304.282135,6.978852 303.302826,6.828037 302.351227,6.573723 
	C288.039642,2.748975 281.458191,6.392701 277.262329,20.491133 
	C275.175598,27.502752 273.221680,34.556393 271.001709,41.525429 
	C262.131012,69.372910 253.179550,97.194649 244.126663,125.435478 
	C237.324844,122.835381 230.554153,120.185387 223.739441,117.653877 
	C204.456070,110.490517 193.181412,114.089333 184.201874,132.390045 
	C177.126038,146.810974 170.970474,161.852081 166.101990,177.157166 
	C148.361710,232.927475 131.404999,288.946594 113.983612,344.819153 
	C109.829346,358.142426 104.544662,371.122284 100.626602,384.507904 
	C95.329750,402.604065 101.304680,415.732697 117.970726,424.373322 
	C123.852097,427.422546 129.951752,430.050720 136.349945,433.058319 
	C135.781479,435.550781 135.142807,438.269165 134.543198,440.996155 
	C133.019943,447.923828 132.491867,454.827850 135.144348,461.634521 
	C137.955780,468.849121 143.783401,470.994446 149.604050,465.877075 
	C153.545654,462.411713 156.291275,457.403503 158.956970,452.734314 
	C160.699554,449.682007 161.341766,446.001495 162.527283,442.451385 
	C164.149338,442.891937 165.269226,443.156769 166.364777,443.499451 
	C190.956772,451.191528 215.517685,458.985443 240.167084,466.488708 
	C243.783554,467.589539 244.414734,468.743042 243.434799,472.351135 
	C239.466080,486.963684 241.393143,492.302216 253.000000,501.000000 
z"/>
<path fill="#FFFFFF" opacity="1.000000" stroke="none" 
	d="
M314.000000,0.999998 
	C376.304169,1.000000 438.608307,1.000000 500.956238,1.000000 
	C500.956238,167.559464 500.956238,334.118958 500.956238,501.000000 
	C419.645508,501.000000 338.290619,501.000000 256.632812,500.675995 
	C269.007599,497.599426 269.136353,486.079437 272.767334,476.435333 
	C275.795715,477.346802 278.875275,478.007782 281.741089,479.187836 
	C289.265198,482.286041 295.624329,480.577789 301.500458,475.271667 
	C309.183502,468.334015 313.525299,459.306519 316.953705,449.935791 
	C322.036438,436.043365 326.122681,421.788574 331.104584,407.856598 
	C353.507416,345.206757 376.107300,282.627319 398.527954,219.983795 
	C400.313019,214.996231 401.605286,209.774002 402.555603,204.556824 
	C405.492279,188.434616 399.985199,178.154419 385.703033,173.345779 
	C380.377838,171.552856 374.739380,170.697739 369.256287,169.363495 
	C366.126221,168.601822 363.021423,167.736343 359.692780,166.861771 
	C367.817413,137.760056 375.692566,109.404602 383.663391,81.076080 
	C386.720917,70.209679 390.493317,59.518284 393.006073,48.533520 
	C394.805756,40.665932 391.961639,36.891964 384.258423,34.081459 
	C380.867432,32.844238 377.353668,31.943399 373.718597,30.835896 
	C373.924866,29.390610 373.990784,28.243116 374.261444,27.146135 
	C375.755005,21.092398 375.282837,20.800106 369.370514,18.937731 
	C350.866272,13.108929 332.450226,7.000233 314.000000,0.999998 
z"/>
<path fill="#FA7176" opacity="1.000000" stroke="none" 
	d="
M313.666687,0.999998 
	C332.450226,7.000233 350.866272,13.108929 369.370514,18.937731 
	C375.282837,20.800106 375.755005,21.092398 374.261444,27.146135 
	C373.990784,28.243116 373.924866,29.390610 373.718597,30.835896 
	C377.353668,31.943399 380.867432,32.844238 384.258423,34.081459 
	C391.961639,36.891964 394.805756,40.665932 393.006073,48.533520 
	C390.493317,59.518284 386.720917,70.209679 383.663391,81.076080 
	C375.692566,109.404602 367.817413,137.760056 359.692780,166.861771 
	C363.021423,167.736343 366.126221,168.601822 369.256287,169.363495 
	C374.739380,170.697739 380.377838,171.552856 385.703033,173.345779 
	C399.985199,178.154419 405.492279,188.434616 402.555603,204.556824 
	C401.605286,209.774002 400.313019,214.996231 398.527954,219.983795 
	C376.107300,282.627319 353.507416,345.206757 331.104584,407.856598 
	C326.122681,421.788574 322.036438,436.043365 316.953705,449.935791 
	C313.525299,459.306519 309.183502,468.334015 301.500458,475.271667 
	C295.624329,480.577789 289.265198,482.286041 281.741089,479.187836 
	C278.875275,478.007782 275.795715,477.346802 272.767334,476.435333 
	C269.136353,486.079437 269.007599,497.599426 256.164948,500.675995 
	C255.250000,501.000000 254.500000,501.000000 253.375000,501.000000 
	C241.393143,492.302216 239.466080,486.963684 243.434799,472.351135 
	C244.414734,468.743042 243.783554,467.589539 240.167084,466.488708 
	C215.517685,458.985443 190.956772,451.191528 166.364777,443.499451 
	C165.269226,443.156769 164.149338,442.891937 162.527283,442.451385 
	C161.341766,446.001495 160.699554,449.682007 158.956970,452.734314 
	C156.291275,457.403503 153.545654,462.411713 149.604050,465.877075 
	C143.783401,470.994446 137.955780,468.849121 135.144348,461.634521 
	C132.491867,454.827850 133.019943,447.923828 134.543198,440.996155 
	C135.142807,438.269165 135.781479,435.550781 136.349945,433.058319 
	C129.951752,430.050720 123.852097,427.422546 117.970726,424.373322 
	C101.304680,415.732697 95.329750,402.604065 100.626602,384.507904 
	C104.544662,371.122284 109.829346,358.142426 113.983612,344.819153 
	C131.404999,288.946594 148.361710,232.927475 166.101990,177.157166 
	C170.970474,161.852081 177.126038,146.810974 184.201874,132.390045 
	C193.181412,114.089333 204.456070,110.490517 223.739441,117.653877 
	C230.554153,120.185387 237.324844,122.835381 244.126663,125.435478 
	C253.179550,97.194649 262.131012,69.372910 271.001709,41.525429 
	C273.221680,34.556393 275.175598,27.502752 277.262329,20.491133 
	C281.458191,6.392701 288.039642,2.748975 302.351227,6.573723 
	C303.302826,6.828037 304.282135,6.978852 304.152832,6.952238 
	C307.106201,4.827456 309.352295,3.211508 311.799194,1.297780 
	C312.444458,1.000000 312.888885,1.000000 313.666687,0.999998 
M351.950104,330.396088 
	C365.397308,291.768158 378.868958,253.148666 392.249695,214.497726 
	C393.440460,211.058212 394.295776,207.454910 394.870148,203.857941 
	C397.282257,188.752426 393.214081,182.765274 378.256836,179.024612 
	C377.934631,178.944031 377.595093,178.931885 377.274017,178.847977 
	C365.069366,175.658707 352.557098,173.330627 340.720184,169.109116 
	C305.177094,156.433044 269.902435,143.004913 234.510666,129.903610 
	C228.434814,127.654449 222.411682,125.137367 216.166351,123.497559 
	C203.076935,120.060730 196.805832,122.689201 191.007507,134.861969 
	C185.797363,145.799896 180.775711,156.961243 177.121384,168.484039 
	C159.129837,225.214767 141.624054,282.099518 123.939278,338.927582 
	C121.242599,347.593079 118.506554,356.246338 115.518478,365.766205 
	C132.365585,371.671112 148.511749,377.823822 164.964661,383.001770 
	C209.204102,396.924561 253.579224,410.416016 297.887604,424.120270 
	C303.852142,425.965088 309.742706,428.048889 315.004669,429.801300 
	C327.371704,396.538696 339.530945,363.834991 351.950104,330.396088 
M304.037537,118.369720 
	C310.363312,120.416321 316.679565,122.492889 323.017151,124.502213 
	C331.681641,127.249268 334.797546,132.029190 333.053253,141.047745 
	C332.028625,146.345428 330.252808,151.497833 328.693665,157.155441 
	C336.669952,159.753540 344.311462,162.242599 352.126495,164.788162 
	C352.662720,163.085693 352.976990,162.156815 353.248596,161.215622 
	C363.251740,126.549995 373.117584,91.843933 383.313965,57.235260 
	C387.603333,42.676281 387.323822,41.760128 372.519073,39.117104 
	C372.218628,39.063461 371.882294,39.210625 371.564117,39.272522 
	C367.200775,48.041157 367.197845,48.049957 357.430389,44.802120 
	C341.961365,39.658428 326.492737,34.513557 311.031708,29.345957 
	C301.350403,26.110126 301.333099,26.044233 303.749298,16.474670 
	C303.821594,16.188269 303.665558,15.844214 303.607025,15.528433 
	C292.856018,9.852605 288.178192,11.744850 284.616547,22.962971 
	C275.910187,50.385353 267.073669,77.766464 258.394745,105.197472 
	C255.960327,112.891754 253.891037,120.701553 251.589554,128.682724 
	C261.271118,132.305923 270.244385,135.664062 279.412048,139.094940 
	C279.947083,136.117096 280.299500,133.668365 280.835052,131.260361 
	C283.004211,121.507172 287.078094,117.788452 296.304596,117.400909 
	C298.598633,117.304543 300.921509,117.894348 304.037537,118.369720 
M208.621735,403.859955 
	C176.554016,394.193390 143.896759,386.364502 112.877541,371.959808 
	C111.106003,377.053314 109.540230,381.049255 108.321678,385.148376 
	C103.641037,400.893860 107.311546,411.585114 122.462120,417.906586 
	C146.197510,427.809998 170.383438,436.782593 194.809464,444.843719 
	C224.772324,454.732239 255.192505,463.231720 285.376984,472.456055 
	C289.347229,473.669342 292.732574,472.952820 295.584900,470.376862 
	C305.330597,461.575409 309.106842,449.577850 313.889984,436.924957 
	C278.481323,425.769836 243.950180,414.891174 208.621735,403.859955 
M297.492493,146.027481 
	C305.219604,148.815002 312.946716,151.602509 321.289185,154.612000 
	C322.949768,149.131485 324.809784,144.479141 325.618164,139.650726 
	C325.981506,137.480438 324.801239,133.357880 323.367188,132.857880 
	C314.638947,129.814667 305.708771,127.215919 296.669891,125.299652 
	C294.592102,124.859161 290.602783,127.085762 289.645111,129.105392 
	C287.938446,132.704437 286.938568,137.228790 287.542450,141.067383 
	C287.816406,142.808670 292.630585,143.837677 295.387878,145.184235 
	C295.835327,145.402756 296.296936,145.592178 297.492493,146.027481 
M356.282074,36.162338 
	C358.440826,36.839790 360.599609,37.517242 363.238495,38.345375 
	C364.399139,34.071995 365.412415,30.341227 366.531891,26.219404 
	C348.595673,20.412663 331.311188,14.816924 313.658813,9.102086 
	C312.936340,11.764736 312.644562,13.763051 311.860657,15.544866 
	C309.987305,19.802994 311.467438,21.589670 315.772858,22.918585 
	C329.093079,27.030006 342.276764,31.583694 356.282074,36.162338 
M264.012360,478.538818 
	C264.360046,476.964020 264.707703,475.389221 265.169495,473.297607 
	C260.803101,472.099640 256.743774,470.985901 252.327972,469.774353 
	C250.087677,475.934204 248.226746,481.790405 250.287796,487.891663 
	C250.927811,489.786255 253.030380,491.969543 254.859314,492.422729 
	C256.228943,492.762146 258.910431,490.931702 259.812134,489.374878 
	C261.604065,486.280975 262.571564,482.709625 264.012360,478.538818 
M145.801895,459.696289 
	C152.350220,454.490845 152.572540,446.550232 155.244675,439.308868 
	C152.085083,438.111725 149.528351,436.889374 146.833237,436.252686 
	C145.824020,436.014282 143.553879,436.999359 143.454987,437.664093 
	C142.563004,443.659241 141.774719,449.698853 141.574020,455.745941 
	C141.527985,457.133118 143.861313,458.599304 145.801895,459.696289 
z"/>
<path fill="#FFFEFE" opacity="1.000000" stroke="none" 
	d="
M351.820160,330.763672 
	C339.530945,363.834991 327.371704,396.538696 315.004669,429.801300 
	C309.742706,428.048889 303.852142,425.965088 297.887604,424.120270 
	C253.579224,410.416016 209.204102,396.924561 164.964661,383.001770 
	C148.511749,377.823822 132.365585,371.671112 115.518478,365.766205 
	C118.506554,356.246338 121.242599,347.593079 123.939278,338.927582 
	C141.624054,282.099518 159.129837,225.214767 177.121384,168.484039 
	C180.775711,156.961243 185.797363,145.799896 191.007507,134.861969 
	C196.805832,122.689201 203.076935,120.060730 216.166351,123.497559 
	C222.411682,125.137367 228.434814,127.654449 234.510666,129.903610 
	C269.902435,143.004913 305.177094,156.433044 340.720184,169.109116 
	C352.557098,173.330627 365.069366,175.658707 377.274017,178.847977 
	C377.595093,178.931885 377.934631,178.944031 378.256836,179.024612 
	C393.214081,182.765274 397.282257,188.752426 394.870148,203.857941 
	C394.295776,207.454910 393.440460,211.058212 392.249695,214.497726 
	C378.868958,253.148666 365.397308,291.768158 351.820160,330.763672 
M230.296890,205.870377 
	C231.187485,202.673004 232.415863,199.515747 232.802887,196.258545 
	C232.958298,194.950485 231.503632,192.548965 230.348938,192.234512 
	C229.130936,191.902802 227.202820,193.238174 225.959656,194.288696 
	C225.202652,194.928375 225.131531,196.399185 224.790176,197.508316 
	C220.001785,213.067062 215.315628,228.658005 210.417099,244.181976 
	C199.219284,279.669006 187.915298,315.122498 176.665466,350.593140 
	C175.802567,353.313873 174.557053,356.580658 178.330597,357.763153 
	C182.445923,359.052734 183.127548,355.440002 184.012589,352.544342 
	C186.585922,344.125092 189.121582,335.693604 191.780716,327.301392 
	C204.525909,287.077454 217.307007,246.864914 230.296890,205.870377 
M260.392365,275.960815 
	C267.337372,256.740906 274.278351,237.519547 281.232056,218.302780 
	C282.174957,215.696945 283.166321,212.703232 279.940948,211.372070 
	C276.402710,209.911774 275.014008,212.777435 273.992706,215.641846 
	C262.833008,246.940735 251.415176,278.150299 240.570847,309.557892 
	C234.501663,327.135620 229.399673,345.046539 223.795303,362.786285 
	C222.919098,365.559814 223.031845,368.247955 226.128555,368.647217 
	C227.603531,368.837372 229.491577,366.543701 231.023331,365.184509 
	C231.562698,364.705902 231.603546,363.660980 231.862488,362.871490 
	C241.283524,334.147766 250.703430,305.423645 260.392365,275.960815 
M275.923248,360.334778 
	C274.239288,365.725464 272.621094,371.137909 270.845886,376.498383 
	C269.834259,379.553040 269.715454,382.475433 273.356079,383.317383 
	C276.913208,384.140015 277.571716,381.040649 278.273682,378.393402 
	C278.954529,375.825836 279.665070,373.259460 280.517914,370.745239 
	C295.464752,326.682343 310.439697,282.628998 325.387634,238.566483 
	C326.078888,236.528870 327.039459,234.416779 327.003052,232.354767 
	C326.977539,230.908203 325.720306,228.641159 324.551361,228.293579 
	C323.379700,227.945175 321.381104,229.255402 320.225403,230.347229 
	C319.371307,231.154129 319.289978,232.777771 318.861389,234.036514 
	C304.613983,275.881439 290.366241,317.726257 275.923248,360.334778 
M231.985321,228.545609 
	C232.383148,226.592163 232.780975,224.638718 233.178818,222.685272 
	C232.617096,222.534775 232.055374,222.384277 231.493652,222.233780 
	C218.306259,261.977478 205.118881,301.721161 191.765121,341.966309 
	C193.113602,341.711212 193.598480,341.750824 193.688065,341.581390 
	C194.304825,340.414978 194.887238,339.224884 195.392746,338.005951 
	C210.062988,302.631165 221.883163,266.300323 231.985321,228.545609 
M139.691879,314.176025 
	C154.931564,272.885742 167.305786,232.499695 166.374756,226.317490 
	C153.522614,257.112061 144.416504,288.611481 136.930862,320.680328 
	C137.737366,318.739594 138.543884,316.798859 139.691879,314.176025 
M331.767029,253.366531 
	C332.045593,252.236145 332.395874,251.117416 332.582428,249.972046 
	C332.766418,248.842117 332.784729,247.685226 332.875732,246.540161 
	C332.375488,246.439774 331.875214,246.339386 331.374939,246.238983 
	C321.830353,276.305054 312.285736,306.371124 302.741150,336.437195 
	C303.348297,336.633270 303.955444,336.829315 304.562592,337.025391 
	C315.330902,309.995880 325.736145,282.845001 331.767029,253.366531 
M244.859756,343.388153 
	C249.510864,329.222809 254.161957,315.057434 258.813049,300.892090 
	C258.377502,300.755402 257.941925,300.618744 257.506378,300.482056 
	C251.028305,309.318176 237.087357,350.922485 238.697556,359.067352 
	C240.658310,354.083160 242.619049,349.098999 244.859756,343.388153 
M182.831238,174.250870 
	C184.367569,170.759293 185.829865,167.232880 187.453506,163.782379 
	C193.405457,151.133469 199.369049,138.474991 213.226532,131.924896 
	C208.980484,132.876312 204.799911,134.096207 201.400040,136.445786 
	C190.082916,144.266907 180.186707,164.521530 180.293610,179.286575 
	C181.194717,177.477417 181.838867,176.184113 182.831238,174.250870 
M276.105347,253.622375 
	C279.908722,244.705811 283.226288,235.657532 283.663422,225.804062 
	C276.712952,241.856445 268.130676,257.268463 265.694122,275.055206 
	C269.076782,268.148499 272.459442,261.241791 276.105347,253.622375 
M299.683990,331.276855 
	C291.507568,344.996094 286.828308,359.872986 284.448486,375.511047 
	C284.969940,375.692505 285.491394,375.873962 286.012817,376.055420 
	C291.507721,360.631470 297.002594,345.207520 302.497498,329.783569 
	C302.114502,329.615295 301.731506,329.446991 301.348541,329.278717 
	C300.909912,329.738159 300.471313,330.197571 299.683990,331.276855 
z"/>
<path fill="#FFFEFE" opacity="1.000000" stroke="none" 
	d="
M303.634338,118.269241 
	C300.921509,117.894348 298.598633,117.304543 296.304596,117.400909 
	C287.078094,117.788452 283.004211,121.507172 280.835052,131.260361 
	C280.299500,133.668365 279.947083,136.117096 279.412048,139.094940 
	C270.244385,135.664062 261.271118,132.305923 251.589554,128.682724 
	C253.891037,120.701553 255.960327,112.891754 258.394745,105.197472 
	C267.073669,77.766464 275.910187,50.385353 284.616547,22.962971 
	C288.178192,11.744850 292.856018,9.852605 303.611511,15.527735 
	C303.665558,15.844214 303.821594,16.188269 303.749298,16.474670 
	C301.333099,26.044233 301.350403,26.110126 311.031708,29.345957 
	C326.492737,34.513557 341.961365,39.658428 357.430389,44.802120 
	C367.197845,48.049957 367.200775,48.041157 371.563416,39.268311 
	C371.882294,39.210625 372.218628,39.063461 372.519073,39.117104 
	C387.323822,41.760128 387.603333,42.676281 383.313965,57.235260 
	C373.117584,91.843933 363.251740,126.549995 353.248596,161.215622 
	C352.976990,162.156815 352.662720,163.085693 352.126495,164.788162 
	C344.311462,162.242599 336.669952,159.753540 328.693665,157.155441 
	C330.252808,151.497833 332.028625,146.345428 333.053253,141.047745 
	C334.797546,132.029190 331.681641,127.249268 323.017151,124.502213 
	C316.679565,122.492889 310.363312,120.416321 303.634338,118.269241 
z"/>
<path fill="#FFFEFE" opacity="1.000000" stroke="none" 
	d="
M209.020386,403.936218 
	C243.950180,414.891174 278.481323,425.769836 313.889984,436.924957 
	C309.106842,449.577850 305.330597,461.575409 295.584900,470.376862 
	C292.732574,472.952820 289.347229,473.669342 285.376984,472.456055 
	C255.192505,463.231720 224.772324,454.732239 194.809464,444.843719 
	C170.383438,436.782593 146.197510,427.809998 122.462120,417.906586 
	C107.311546,411.585114 103.641037,400.893860 108.321678,385.148376 
	C109.540230,381.049255 111.106003,377.053314 112.877541,371.959808 
	C143.896759,386.364502 176.554016,394.193390 209.020386,403.936218 
M154.311325,428.132538 
	C157.951080,429.565582 161.590836,430.998627 165.230591,432.431671 
	C165.435852,432.002777 165.641113,431.573914 165.846375,431.145020 
	C164.069717,430.091156 162.302704,429.020599 160.514709,427.986298 
	C153.028320,423.655548 145.159973,419.865601 138.135132,414.885132 
	C128.116226,407.781921 114.839371,402.777832 117.047646,385.025513 
	C113.655228,392.455811 114.842545,399.442688 119.502335,405.075714 
	C128.593475,416.065704 140.857864,422.332581 154.311325,428.132538 
M117.242508,384.554779 
	C117.400497,384.573853 117.558487,384.592926 117.716484,384.612000 
	C117.648720,384.510101 117.580956,384.408203 117.242508,384.554779 
z"/>
<path fill="#FFFCFC" opacity="1.000000" stroke="none" 
	d="
M297.122253,145.911255 
	C296.296936,145.592178 295.835327,145.402756 295.387878,145.184235 
	C292.630585,143.837677 287.816406,142.808670 287.542450,141.067383 
	C286.938568,137.228790 287.938446,132.704437 289.645111,129.105392 
	C290.602783,127.085762 294.592102,124.859161 296.669891,125.299652 
	C305.708771,127.215919 314.638947,129.814667 323.367188,132.857880 
	C324.801239,133.357880 325.981506,137.480438 325.618164,139.650726 
	C324.809784,144.479141 322.949768,149.131485 321.289185,154.612000 
	C312.946716,151.602509 305.219604,148.815002 297.122253,145.911255 
z"/>
<path fill="#FFFCFC" opacity="1.000000" stroke="none" 
	d="
M355.897766,36.064007 
	C342.276764,31.583694 329.093079,27.030006 315.772858,22.918585 
	C311.467438,21.589670 309.987305,19.802994 311.860657,15.544866 
	C312.644562,13.763051 312.936340,11.764736 313.658813,9.102086 
	C331.311188,14.816924 348.595673,20.412663 366.531891,26.219404 
	C365.412415,30.341227 364.399139,34.071995 363.238495,38.345375 
	C360.599609,37.517242 358.440826,36.839790 355.897766,36.064007 
z"/>
<path fill="#FFFAFA" opacity="1.000000" stroke="none" 
	d="
M263.946045,478.937195 
	C262.571564,482.709625 261.604065,486.280975 259.812134,489.374878 
	C258.910431,490.931702 256.228943,492.762146 254.859314,492.422729 
	C253.030380,491.969543 250.927811,489.786255 250.287796,487.891663 
	C248.226746,481.790405 250.087677,475.934204 252.327972,469.774353 
	C256.743774,470.985901 260.803101,472.099640 265.169495,473.297607 
	C264.707703,475.389221 264.360046,476.964020 263.946045,478.937195 
z"/>
<path fill="#FFFBFB" opacity="1.000000" stroke="none" 
	d="
M145.450760,459.862732 
	C143.861313,458.599304 141.527985,457.133118 141.574020,455.745941 
	C141.774719,449.698853 142.563004,443.659241 143.454987,437.664093 
	C143.553879,436.999359 145.824020,436.014282 146.833237,436.252686 
	C149.528351,436.889374 152.085083,438.111725 155.244675,439.308868 
	C152.572540,446.550232 152.350220,454.490845 145.450760,459.862732 
z"/>
<path fill="#FA7276" opacity="1.000000" stroke="none" 
	d="
M230.186127,206.259338 
	C217.307007,246.864914 204.525909,287.077454 191.780716,327.301392 
	C189.121582,335.693604 186.585922,344.125092 184.012589,352.544342 
	C183.127548,355.440002 182.445923,359.052734 178.330597,357.763153 
	C174.557053,356.580658 175.802567,353.313873 176.665466,350.593140 
	C187.915298,315.122498 199.219284,279.669006 210.417099,244.181976 
	C215.315628,228.658005 220.001785,213.067062 224.790176,197.508316 
	C225.131531,196.399185 225.202652,194.928375 225.959656,194.288696 
	C227.202820,193.238174 229.130936,191.902802 230.348938,192.234512 
	C231.503632,192.548965 232.958298,194.950485 232.802887,196.258545 
	C232.415863,199.515747 231.187485,202.673004 230.186127,206.259338 
z"/>
<path fill="#FA7276" opacity="1.000000" stroke="none" 
	d="
M260.257935,276.330200 
	C250.703430,305.423645 241.283524,334.147766 231.862488,362.871490 
	C231.603546,363.660980 231.562698,364.705902 231.023331,365.184509 
	C229.491577,366.543701 227.603531,368.837372 226.128555,368.647217 
	C223.031845,368.247955 222.919098,365.559814 223.795303,362.786285 
	C229.399673,345.046539 234.501663,327.135620 240.570847,309.557892 
	C251.415176,278.150299 262.833008,246.940735 273.992706,215.641846 
	C275.014008,212.777435 276.402710,209.911774 279.940948,211.372070 
	C283.166321,212.703232 282.174957,215.696945 281.232056,218.302780 
	C274.278351,237.519547 267.337372,256.740906 260.257935,276.330200 
z"/>
<path fill="#FA7277" opacity="1.000000" stroke="none" 
	d="
M276.020874,359.952942 
	C290.366241,317.726257 304.613983,275.881439 318.861389,234.036514 
	C319.289978,232.777771 319.371307,231.154129 320.225403,230.347229 
	C321.381104,229.255402 323.379700,227.945175 324.551361,228.293579 
	C325.720306,228.641159 326.977539,230.908203 327.003052,232.354767 
	C327.039459,234.416779 326.078888,236.528870 325.387634,238.566483 
	C310.439697,282.628998 295.464752,326.682343 280.517914,370.745239 
	C279.665070,373.259460 278.954529,375.825836 278.273682,378.393402 
	C277.571716,381.040649 276.913208,384.140015 273.356079,383.317383 
	C269.715454,382.475433 269.834259,379.553040 270.845886,376.498383 
	C272.621094,371.137909 274.239288,365.725464 276.020874,359.952942 
z"/>
<path fill="#FA777C" opacity="1.000000" stroke="none" 
	d="
M231.903687,228.942337 
	C221.883163,266.300323 210.062988,302.631165 195.392746,338.005951 
	C194.887238,339.224884 194.304825,340.414978 193.688065,341.581390 
	C193.598480,341.750824 193.113602,341.711212 191.765121,341.966309 
	C205.118881,301.721161 218.306259,261.977478 231.493652,222.233780 
	C232.055374,222.384277 232.617096,222.534775 233.178818,222.685272 
	C232.780975,224.638718 232.383148,226.592163 231.903687,228.942337 
z"/>
<path fill="#FA787D" opacity="1.000000" stroke="none" 
	d="
M139.521133,314.517090 
	C138.543884,316.798859 137.737366,318.739594 136.930862,320.680328 
	C144.416504,288.611481 153.522614,257.112061 166.374756,226.317490 
	C167.305786,232.499695 154.931564,272.885742 139.521133,314.517090 
z"/>
<path fill="#FA787D" opacity="1.000000" stroke="none" 
	d="
M331.646362,253.758850 
	C325.736145,282.845001 315.330902,309.995880 304.562592,337.025391 
	C303.955444,336.829315 303.348297,336.633270 302.741150,336.437195 
	C312.285736,306.371124 321.830353,276.305054 331.374939,246.238983 
	C331.875214,246.339386 332.375488,246.439774 332.875732,246.540161 
	C332.784729,247.685226 332.766418,248.842117 332.582428,249.972046 
	C332.395874,251.117416 332.045593,252.236145 331.646362,253.758850 
z"/>
<path fill="#FA777C" opacity="1.000000" stroke="none" 
	d="
M244.719788,343.751465 
	C242.619049,349.098999 240.658310,354.083160 238.697556,359.067352 
	C237.087357,350.922485 251.028305,309.318176 257.506378,300.482056 
	C257.941925,300.618744 258.377502,300.755402 258.813049,300.892090 
	C254.161957,315.057434 249.510864,329.222809 244.719788,343.751465 
z"/>
<path fill="#FA777C" opacity="1.000000" stroke="none" 
	d="
M182.657135,174.570847 
	C181.838867,176.184113 181.194717,177.477417 180.293610,179.286575 
	C180.186707,164.521530 190.082916,144.266907 201.400040,136.445786 
	C204.799911,134.096207 208.980484,132.876312 213.226532,131.924896 
	C199.369049,138.474991 193.405457,151.133469 187.453506,163.782379 
	C185.829865,167.232880 184.367569,170.759293 182.657135,174.570847 
z"/>
<path fill="#FA787D" opacity="1.000000" stroke="none" 
	d="
M275.973724,253.978729 
	C272.459442,261.241791 269.076782,268.148499 265.694122,275.055206 
	C268.130676,257.268463 276.712952,241.856445 283.663422,225.804062 
	C283.226288,235.657532 279.908722,244.705811 275.973724,253.978729 
z"/>
<path fill="#FA787D" opacity="1.000000" stroke="none" 
	d="
M299.858337,330.966919 
	C300.471313,330.197571 300.909912,329.738159 301.348541,329.278717 
	C301.731506,329.446991 302.114502,329.615295 302.497498,329.783569 
	C297.002594,345.207520 291.507721,360.631470 286.012817,376.055420 
	C285.491394,375.873962 284.969940,375.692505 284.448486,375.511047 
	C286.828308,359.872986 291.507568,344.996094 299.858337,330.966919 
z"/>
<path fill="#FA787D" opacity="1.000000" stroke="none" 
	d="
M153.947418,428.018372 
	C140.857864,422.332581 128.593475,416.065704 119.502335,405.075714 
	C114.842545,399.442688 113.655228,392.455811 117.047646,385.025513 
	C114.839371,402.777832 128.116226,407.781921 138.135132,414.885132 
	C145.159973,419.865601 153.028320,423.655548 160.514709,427.986298 
	C162.302704,429.020599 164.069717,430.091156 165.846375,431.145020 
	C165.641113,431.573914 165.435852,432.002777 165.230591,432.431671 
	C161.590836,430.998627 157.951080,429.565582 153.947418,428.018372 
z"/>
<path fill="#FA787D" opacity="1.000000" stroke="none" 
	d="
M117.377853,384.430542 
	C117.580956,384.408203 117.648720,384.510101 117.716484,384.612000 
	C117.558487,384.592926 117.400497,384.573853 117.377853,384.430542 
z"/>
</svg>