<svg version="1.1" id="Layer_1" xmlns="http://www.w3.org/2000/svg" xmlns:xlink="http://www.w3.org/1999/xlink" x="0px" y="0px"
	 width="100%" viewBox="0 0 500 500" enable-background="new 0 0 500 500" xml:space="preserve">
<path fill="#FA6D72" opacity="1.000000" stroke="none" 
	d="
M253.000000,501.000000 
	C169.034317,501.000000 85.068634,501.000000 1.051475,501.000000 
	C1.051475,334.435760 1.051475,167.871490 1.051475,1.000000 
	C104.355141,1.000000 207.710587,1.000000 311.320740,1.288156 
	C309.345398,3.236043 307.115356,4.895774 304.251068,7.027550 
	C304.435486,7.055240 303.572449,7.059628 302.805176,6.790765 
	C286.079620,0.929773 280.658844,9.861655 277.133575,21.049137 
	C268.435638,48.652294 259.589447,76.208702 250.864822,103.803505 
	C248.623001,110.894043 246.610901,118.057205 244.377869,125.575569 
	C237.389084,122.904678 230.773315,120.299561 224.103287,117.841705 
	C204.320679,110.552002 193.713379,114.084221 184.076447,132.544205 
	C178.557449,143.116013 173.716583,154.212677 170.058243,165.553024 
	C159.029160,199.741516 148.954727,234.236847 138.082764,268.477478 
	C126.406624,305.250916 114.331673,341.898651 102.270401,378.548462 
	C94.450111,402.311523 99.754219,415.432800 122.285583,426.611969 
	C126.847992,428.875641 131.608978,430.739105 136.489136,432.879486 
	C135.764587,436.029022 135.032623,438.916199 134.443085,441.832153 
	C133.037094,448.786377 132.596832,455.720856 135.558594,462.428772 
	C138.290131,468.615295 143.753311,470.743469 148.793671,466.377533 
	C153.004181,462.730408 156.034103,457.533691 158.944550,452.641174 
	C160.732697,449.635193 161.312408,445.910339 162.353729,442.753967 
	C189.975296,451.367432 217.038681,459.806824 244.295822,468.306641 
	C243.985229,469.742096 243.749954,471.030365 243.426010,472.295929 
	C239.686432,486.905334 241.435211,492.161285 253.000000,501.000000 
z"/>
<path fill="#FA6D72" opacity="1.000000" stroke="none" 
	d="
M314.000000,1.000001 
	C376.304169,1.000000 438.608307,1.000000 500.956238,1.000000 
	C500.956238,167.559464 500.956238,334.118958 500.956238,501.000000 
	C419.645508,501.000000 338.290619,501.000000 256.637329,500.678162 
	C269.185883,497.630157 268.983948,485.619019 272.896820,476.309937 
	C276.081116,477.308716 278.994720,478.007538 281.738434,479.123901 
	C289.695984,482.361816 296.775635,480.669891 302.120483,474.408539 
	C306.604431,469.155762 311.074188,463.412872 313.653748,457.110687 
	C319.251892,443.433685 323.551819,429.229767 328.533630,415.295288 
	C351.447601,351.202942 374.455536,287.144104 397.295563,223.025452 
	C399.574677,216.627319 401.500305,209.999161 402.626740,203.315414 
	C405.248596,187.758362 399.482910,177.908127 385.387115,173.286163 
	C380.353088,171.635559 375.053345,170.801132 369.884918,169.552628 
	C366.560944,168.749680 363.255249,167.871033 359.371307,166.881012 
	C369.162140,132.770630 378.770935,99.359207 388.329651,65.933464 
	C390.062042,59.875481 392.165771,53.842304 393.062561,47.647758 
	C394.137848,40.220421 391.769775,37.003532 384.703857,34.297615 
	C381.178101,32.947437 377.477478,32.053932 373.646881,30.890354 
	C373.812988,29.644585 373.863556,28.670551 374.080261,27.734995 
	C375.696747,20.755947 375.628387,21.005651 368.925385,18.873571 
	C350.578094,13.037728 332.303436,6.973684 314.000000,1.000001 
z"/>
<path fill="#FFFBFB" opacity="1.000000" stroke="none" 
	d="
M313.666687,1.000001 
	C332.303436,6.973684 350.578094,13.037728 368.925385,18.873571 
	C375.628387,21.005651 375.696747,20.755947 374.080261,27.734995 
	C373.863556,28.670551 373.812988,29.644585 373.646881,30.890354 
	C377.477478,32.053932 381.178101,32.947437 384.703857,34.297615 
	C391.769775,37.003532 394.137848,40.220421 393.062561,47.647758 
	C392.165771,53.842304 390.062042,59.875481 388.329651,65.933464 
	C378.770935,99.359207 369.162140,132.770630 359.371307,166.881012 
	C363.255249,167.871033 366.560944,168.749680 369.884918,169.552628 
	C375.053345,170.801132 380.353088,171.635559 385.387115,173.286163 
	C399.482910,177.908127 405.248596,187.758362 402.626740,203.315414 
	C401.500305,209.999161 399.574677,216.627319 397.295563,223.025452 
	C374.455536,287.144104 351.447601,351.202942 328.533630,415.295288 
	C323.551819,429.229767 319.251892,443.433685 313.653748,457.110687 
	C311.074188,463.412872 306.604431,469.155762 302.120483,474.408539 
	C296.775635,480.669891 289.695984,482.361816 281.738434,479.123901 
	C278.994720,478.007538 276.081116,477.308716 272.896820,476.309937 
	C268.983948,485.619019 269.185883,497.630157 256.169464,500.678162 
	C255.250000,501.000000 254.500000,501.000000 253.375000,501.000000 
	C241.435211,492.161285 239.686432,486.905334 243.426010,472.295929 
	C243.749954,471.030365 243.985229,469.742096 244.295822,468.306641 
	C217.038681,459.806824 189.975296,451.367432 162.353729,442.753967 
	C161.312408,445.910339 160.732697,449.635193 158.944550,452.641174 
	C156.034103,457.533691 153.004181,462.730408 148.793671,466.377533 
	C143.753311,470.743469 138.290131,468.615295 135.558594,462.428772 
	C132.596832,455.720856 133.037094,448.786377 134.443085,441.832153 
	C135.032623,438.916199 135.764587,436.029022 136.489136,432.879486 
	C131.608978,430.739105 126.847992,428.875641 122.285583,426.611969 
	C99.754219,415.432800 94.450111,402.311523 102.270401,378.548462 
	C114.331673,341.898651 126.406624,305.250916 138.082764,268.477478 
	C148.954727,234.236847 159.029160,199.741516 170.058243,165.553024 
	C173.716583,154.212677 178.557449,143.116013 184.076447,132.544205 
	C193.713379,114.084221 204.320679,110.552002 224.103287,117.841705 
	C230.773315,120.299561 237.389084,122.904678 244.377869,125.575569 
	C246.610901,118.057205 248.623001,110.894043 250.864822,103.803505 
	C259.589447,76.208702 268.435638,48.652294 277.133575,21.049137 
	C280.658844,9.861655 286.079620,0.929773 302.805176,6.790765 
	C303.572449,7.059628 304.435486,7.055240 304.251068,7.027550 
	C307.115356,4.895774 309.345398,3.236043 311.787720,1.288156 
	C312.444458,1.000000 312.888885,1.000000 313.666687,1.000001 
M351.971222,330.404480 
	C365.048096,292.855530 378.207703,255.335007 391.114258,217.727631 
	C393.094147,211.958755 394.493744,205.851471 395.134552,199.792084 
	C396.361023,188.194809 392.868805,183.350861 381.527496,180.039917 
	C376.124939,178.462692 370.461365,177.794342 365.027863,176.306015 
	C320.645508,164.149109 278.086029,146.852753 235.303284,130.183502 
	C229.109161,127.770126 222.904099,125.219589 216.486420,123.589462 
	C209.374222,121.782928 201.788605,120.309288 196.121948,127.129608 
	C193.700912,130.043533 191.415359,133.283829 189.963516,136.750748 
	C184.762253,149.171112 179.169205,161.506622 175.115326,174.314499 
	C157.795792,229.034058 140.977264,283.912170 123.965736,338.729279 
	C121.269188,347.418518 118.520134,356.091492 115.695107,365.091339 
	C126.017044,369.191284 135.678024,373.758575 145.779678,376.915894 
	C191.507919,391.208435 237.377655,405.047638 283.156158,419.180573 
	C294.060730,422.547089 304.810150,426.416046 315.006561,429.843994 
	C327.387329,396.571930 339.559998,363.859161 351.971222,330.404480 
M304.021271,118.446297 
	C310.511780,120.529449 317.000671,122.617592 323.493164,124.694458 
	C331.275482,127.183914 334.306824,131.502945 333.222900,139.672699 
	C332.681580,143.752563 331.196960,147.709106 330.112274,151.714172 
	C329.655853,153.399445 329.130188,155.065948 328.525146,157.116714 
	C336.698761,159.787643 344.327698,162.280579 352.101837,164.820969 
	C352.840240,162.587555 353.353333,161.192291 353.764984,159.767715 
	C363.831360,124.930466 373.882172,90.088730 383.947052,55.251049 
	C387.530945,42.846016 387.309265,42.438084 374.843689,39.622517 
	C373.746857,39.374771 372.619080,39.263973 371.586639,39.102249 
	C367.380615,48.031006 367.379150,48.035393 357.740997,44.847340 
	C342.576111,39.831192 327.412903,34.809902 312.249908,29.788023 
	C301.699951,26.293940 301.700623,26.291872 303.716705,15.731965 
	C293.823792,9.738275 288.343597,11.618464 284.809814,22.217682 
	C284.651794,22.691616 284.471954,23.158442 284.320465,23.634371 
	C275.691681,50.741840 267.023438,77.836868 258.464050,104.966240 
	C256.026917,112.690849 253.906723,120.515465 251.531677,128.670258 
	C261.093842,132.255432 270.055237,135.615341 279.362885,139.105087 
	C280.002502,135.663712 280.408569,132.733246 281.104858,129.873444 
	C283.138336,121.521660 287.218719,118.060249 295.786499,117.598869 
	C298.247620,117.466331 300.744232,117.993202 304.021271,118.446297 
M208.631409,403.825256 
	C206.557312,403.212921 204.470886,402.639191 202.410980,401.982391 
	C177.545914,394.053802 152.536896,386.541718 127.871475,378.033722 
	C109.593117,371.728882 113.410904,368.125031 107.352821,389.202179 
	C104.697113,398.441864 106.605156,407.418152 115.022728,413.287201 
	C120.562859,417.149994 126.610809,420.627228 132.913895,422.989777 
	C153.315552,430.636780 173.773743,438.209015 194.518250,444.847321 
	C224.768738,454.527557 255.292862,463.351807 285.683838,472.595184 
	C289.847351,473.861511 293.410553,472.670624 296.259613,469.889038 
	C305.348267,461.015442 309.367188,449.450073 313.776276,436.864410 
	C278.552429,425.773346 243.987381,414.889709 208.631409,403.825256 
M297.490265,146.033829 
	C305.239227,148.826721 312.988159,151.619598 321.283691,154.609482 
	C322.937042,149.185257 324.818542,144.666443 325.532013,139.970184 
	C325.885864,137.640900 324.698090,133.308029 323.169769,132.756165 
	C314.751617,129.716400 306.047607,127.430992 297.366699,125.175140 
	C294.012054,124.303391 290.674469,125.428635 289.538788,128.903458 
	C288.263763,132.804565 286.948120,137.143326 287.540802,141.001236 
	C287.810638,142.757675 292.623688,143.819260 295.380219,145.187454 
	C295.827393,145.409409 296.296661,145.586823 297.490265,146.033829 
M356.283478,36.160400 
	C358.446228,36.835083 360.608948,37.509762 363.253204,38.334644 
	C364.408813,34.059196 365.417725,30.326479 366.527191,26.221762 
	C348.590576,20.405203 331.309082,14.801097 313.686859,9.086491 
	C312.985229,11.569240 312.694183,13.397276 311.964508,15.029198 
	C309.895721,19.656071 311.444946,21.615051 316.234406,23.062078 
	C329.423370,27.046833 342.435242,31.617640 356.283478,36.160400 
M264.002594,478.548248 
	C264.334259,476.966125 264.665924,475.384003 265.103088,473.298645 
	C260.729340,472.088409 256.667389,470.964417 252.439377,469.794495 
	C249.987900,475.942719 248.352798,481.718781 250.261642,487.684540 
	C250.874695,489.600525 252.922119,491.818604 254.752472,492.331665 
	C256.100708,492.709564 258.866425,490.950500 259.759277,489.419708 
	C261.567749,486.319031 262.533844,482.727051 264.002594,478.548248 
M145.805313,459.705017 
	C152.312515,454.473450 152.622681,446.575378 155.244873,439.191071 
	C151.326584,437.830902 147.971817,436.666351 143.089981,434.971710 
	C142.431900,442.356964 141.588196,448.808197 141.474930,455.272186 
	C141.447479,456.838623 143.829178,458.447266 145.805313,459.705017 
z"/>
<path fill="#FA6E73" opacity="1.000000" stroke="none" 
	d="
M351.851929,330.775421 
	C339.559998,363.859161 327.387329,396.571930 315.006561,429.843994 
	C304.810150,426.416046 294.060730,422.547089 283.156158,419.180573 
	C237.377655,405.047638 191.507919,391.208435 145.779678,376.915894 
	C135.678024,373.758575 126.017044,369.191284 115.695107,365.091339 
	C118.520134,356.091492 121.269188,347.418518 123.965736,338.729279 
	C140.977264,283.912170 157.795792,229.034058 175.115326,174.314499 
	C179.169205,161.506622 184.762253,149.171112 189.963516,136.750748 
	C191.415359,133.283829 193.700912,130.043533 196.121948,127.129608 
	C201.788605,120.309288 209.374222,121.782928 216.486420,123.589462 
	C222.904099,125.219589 229.109161,127.770126 235.303284,130.183502 
	C278.086029,146.852753 320.645508,164.149109 365.027863,176.306015 
	C370.461365,177.794342 376.124939,178.462692 381.527496,180.039917 
	C392.868805,183.350861 396.361023,188.194809 395.134552,199.792084 
	C394.493744,205.851471 393.094147,211.958755 391.114258,217.727631 
	C378.207703,255.335007 365.048096,292.855530 351.851929,330.775421 
M230.245438,205.856293 
	C231.097153,202.986603 232.398193,200.152206 232.627411,197.233627 
	C232.759140,195.556320 231.153976,193.742599 230.330704,191.990295 
	C228.702637,193.066513 226.945694,193.998550 225.506058,195.285568 
	C224.876846,195.848099 224.909210,197.140640 224.620224,198.095352 
	C221.152176,209.552185 217.799042,221.045441 214.187683,232.456970 
	C201.696671,271.927399 189.112640,311.368408 176.574402,350.823883 
	C175.688339,353.612122 174.768921,356.942108 178.634750,357.673981 
	C180.010696,357.934448 182.959641,355.375488 183.535049,353.574585 
	C199.170822,304.638428 214.591583,255.633560 230.245438,205.856293 
M260.370117,275.952545 
	C267.266693,256.876129 274.162231,237.799332 281.061157,218.723770 
	C282.042786,216.009552 283.370453,212.814178 279.808807,211.391083 
	C276.253662,209.970596 274.920593,213.025711 273.958191,215.842087 
	C257.402191,264.290436 240.835068,312.734985 224.326324,361.199432 
	C223.389359,363.950073 221.839752,367.467346 226.049667,368.750580 
	C230.325577,370.053894 230.624252,366.089172 231.667664,363.407532 
	C231.847626,362.945007 231.918686,362.441406 232.074280,361.967987 
	C241.417419,333.542633 250.764130,305.118500 260.370117,275.952545 
M275.948120,360.344147 
	C274.129181,366.220154 272.063141,372.038391 270.666077,378.013031 
	C270.319458,379.495483 272.139465,381.484589 272.963562,383.240784 
	C274.588257,382.209656 276.959503,381.543640 277.680054,380.070343 
	C279.117432,377.131226 279.510040,373.701996 280.575134,370.556824 
	C295.510437,326.453522 310.488983,282.364868 325.443939,238.268250 
	C326.083618,236.382111 327.073853,234.439194 327.018036,232.548798 
	C326.973969,231.055618 325.644745,228.445328 324.756287,228.389206 
	C323.231812,228.292908 321.370209,229.549713 320.104492,230.726898 
	C319.246643,231.524765 319.166412,233.158478 318.737854,234.418198 
	C304.544342,276.140228 290.350769,317.862213 275.948120,360.344147 
M231.961670,228.556091 
	C232.339264,226.667419 232.716843,224.778763 233.094437,222.890091 
	C232.545975,222.738937 231.997528,222.587799 231.449081,222.436661 
	C218.314529,262.065338 205.179962,301.694061 192.045410,341.322754 
	C192.592529,341.505402 193.139648,341.688049 193.686768,341.870697 
	C209.222870,305.334473 221.462784,267.667877 231.961670,228.556091 
M139.650070,314.147949 
	C151.179810,285.908203 159.252777,256.601746 166.729034,227.108643 
	C153.514297,257.216156 144.476303,288.665863 136.894165,320.641235 
	C137.702362,318.703796 138.510559,316.766357 139.650070,314.147949 
M331.686249,253.356476 
	C332.182281,251.122284 332.678345,248.888107 333.370239,245.771744 
	C328.778809,251.585175 303.785950,330.816193 304.367645,337.619446 
	C315.200348,309.827118 325.872864,282.819489 331.686249,253.356476 
M244.805389,343.369049 
	C246.513550,338.687073 248.321304,334.038422 249.902328,329.313904 
	C251.535538,324.433502 253.009552,319.497070 254.439728,314.552307 
	C255.760056,309.987427 256.929962,305.379059 258.166107,300.789825 
	C247.658493,318.904419 241.785217,338.474670 237.326279,358.518127 
	C237.763687,358.686707 238.201096,358.855255 238.638489,359.023834 
	C240.589813,354.043182 242.541122,349.062531 244.805389,343.369049 
M182.823395,174.215118 
	C190.182281,158.212051 195.525009,140.751190 214.359360,132.139862 
	C195.240982,133.230560 183.550171,154.803192 180.096329,179.691391 
	C181.218689,177.420456 181.853912,176.135178 182.823395,174.215118 
M276.093811,253.617828 
	C281.686890,240.646408 284.343079,230.496429 283.168549,225.568604 
	C276.842041,241.936874 268.253143,256.988922 265.932281,274.392029 
	C269.232422,267.704773 272.532593,261.017548 276.093811,253.617828 
M299.715759,331.348877 
	C291.454041,344.998322 286.960358,359.901093 284.476929,375.472534 
	C284.983002,375.649017 285.489105,375.825500 285.995178,376.001984 
	C291.472748,360.603088 296.950287,345.204193 302.427856,329.805298 
	C302.066254,329.647736 301.704681,329.490143 301.343079,329.332550 
	C300.909241,329.797821 300.475372,330.263062 299.715759,331.348877 
z"/>
<path fill="#FA6E73" opacity="1.000000" stroke="none" 
	d="
M303.622925,118.332016 
	C300.744232,117.993202 298.247620,117.466331 295.786499,117.598869 
	C287.218719,118.060249 283.138336,121.521660 281.104858,129.873444 
	C280.408569,132.733246 280.002502,135.663712 279.362885,139.105087 
	C270.055237,135.615341 261.093842,132.255432 251.531677,128.670258 
	C253.906723,120.515465 256.026917,112.690849 258.464050,104.966240 
	C267.023438,77.836868 275.691681,50.741840 284.320465,23.634371 
	C284.471954,23.158442 284.651794,22.691616 284.809814,22.217682 
	C288.343597,11.618464 293.823792,9.738275 303.716705,15.731965 
	C301.700623,26.291872 301.699951,26.293940 312.249908,29.788023 
	C327.412903,34.809902 342.576111,39.831192 357.740997,44.847340 
	C367.379150,48.035393 367.380615,48.031006 371.586639,39.102249 
	C372.619080,39.263973 373.746857,39.374771 374.843689,39.622517 
	C387.309265,42.438084 387.530945,42.846016 383.947052,55.251049 
	C373.882172,90.088730 363.831360,124.930466 353.764984,159.767715 
	C353.353333,161.192291 352.840240,162.587555 352.101837,164.820969 
	C344.327698,162.280579 336.698761,159.787643 328.525146,157.116714 
	C329.130188,155.065948 329.655853,153.399445 330.112274,151.714172 
	C331.196960,147.709106 332.681580,143.752563 333.222900,139.672699 
	C334.306824,131.502945 331.275482,127.183914 323.493164,124.694458 
	C317.000671,122.617592 310.511780,120.529449 303.622925,118.332016 
z"/>
<path fill="#FA6E73" opacity="1.000000" stroke="none" 
	d="
M209.026871,403.915649 
	C243.987381,414.889709 278.552429,425.773346 313.776276,436.864410 
	C309.367188,449.450073 305.348267,461.015442 296.259613,469.889038 
	C293.410553,472.670624 289.847351,473.861511 285.683838,472.595184 
	C255.292862,463.351807 224.768738,454.527557 194.518250,444.847321 
	C173.773743,438.209015 153.315552,430.636780 132.913895,422.989777 
	C126.610809,420.627228 120.562859,417.149994 115.022728,413.287201 
	C106.605156,407.418152 104.697113,398.441864 107.352821,389.202179 
	C113.410904,368.125031 109.593117,371.728882 127.871475,378.033722 
	C152.536896,386.541718 177.545914,394.053802 202.410980,401.982391 
	C204.470886,402.639191 206.557312,403.212921 209.026871,403.915649 
M154.316513,428.118713 
	C157.939178,429.555878 161.561829,430.993042 165.184479,432.430206 
	C165.377213,432.016296 165.569946,431.602386 165.762665,431.188477 
	C164.260986,430.273468 162.756729,429.362640 161.258057,428.442719 
	C150.506805,421.843262 139.651276,415.405945 129.041153,408.586792 
	C121.228386,403.565582 115.064087,397.284088 116.871094,386.576294 
	C113.496407,392.361298 114.922028,399.787262 120.184776,405.849274 
	C129.263840,416.307129 141.147827,422.517609 154.316513,428.118713 
M117.250290,384.551849 
	C117.401207,384.573639 117.552132,384.595428 117.703049,384.617218 
	C117.639275,384.525940 117.575493,384.434662 117.250290,384.551849 
z"/>
<path fill="#FA7075" opacity="1.000000" stroke="none" 
	d="
M297.122986,145.909332 
	C296.296661,145.586823 295.827393,145.409409 295.380219,145.187454 
	C292.623688,143.819260 287.810638,142.757675 287.540802,141.001236 
	C286.948120,137.143326 288.263763,132.804565 289.538788,128.903458 
	C290.674469,125.428635 294.012054,124.303391 297.366699,125.175140 
	C306.047607,127.430992 314.751617,129.716400 323.169769,132.756165 
	C324.698090,133.308029 325.885864,137.640900 325.532013,139.970184 
	C324.818542,144.666443 322.937042,149.185257 321.283691,154.609482 
	C312.988159,151.619598 305.239227,148.826721 297.122986,145.909332 
z"/>
<path fill="#FA7075" opacity="1.000000" stroke="none" 
	d="
M355.900330,36.058506 
	C342.435242,31.617640 329.423370,27.046833 316.234406,23.062078 
	C311.444946,21.615051 309.895721,19.656071 311.964508,15.029198 
	C312.694183,13.397276 312.985229,11.569240 313.686859,9.086491 
	C331.309082,14.801097 348.590576,20.405203 366.527191,26.221762 
	C365.417725,30.326479 364.408813,34.059196 363.253204,38.334644 
	C360.608948,37.509762 358.446228,36.835083 355.900330,36.058506 
z"/>
<path fill="#FA7277" opacity="1.000000" stroke="none" 
	d="
M263.924927,478.942932 
	C262.533844,482.727051 261.567749,486.319031 259.759277,489.419708 
	C258.866425,490.950500 256.100708,492.709564 254.752472,492.331665 
	C252.922119,491.818604 250.874695,489.600525 250.261642,487.684540 
	C248.352798,481.718781 249.987900,475.942719 252.439377,469.794495 
	C256.667389,470.964417 260.729340,472.088409 265.103088,473.298645 
	C264.665924,475.384003 264.334259,476.966125 263.924927,478.942932 
z"/>
<path fill="#FA7277" opacity="1.000000" stroke="none" 
	d="
M145.454193,459.870728 
	C143.829178,458.447266 141.447479,456.838623 141.474930,455.272186 
	C141.588196,448.808197 142.431900,442.356964 143.089981,434.971710 
	C147.971817,436.666351 151.326584,437.830902 155.244873,439.191071 
	C152.622681,446.575378 152.312515,454.473450 145.454193,459.870728 
z"/>
<path fill="#FFFAFB" opacity="1.000000" stroke="none" 
	d="
M230.146927,206.248260 
	C214.591583,255.633560 199.170822,304.638428 183.535049,353.574585 
	C182.959641,355.375488 180.010696,357.934448 178.634750,357.673981 
	C174.768921,356.942108 175.688339,353.612122 176.574402,350.823883 
	C189.112640,311.368408 201.696671,271.927399 214.187683,232.456970 
	C217.799042,221.045441 221.152176,209.552185 224.620224,198.095352 
	C224.909210,197.140640 224.876846,195.848099 225.506058,195.285568 
	C226.945694,193.998550 228.702637,193.066513 230.330704,191.990295 
	C231.153976,193.742599 232.759140,195.556320 232.627411,197.233627 
	C232.398193,200.152206 231.097153,202.986603 230.146927,206.248260 
z"/>
<path fill="#FFFAFB" opacity="1.000000" stroke="none" 
	d="
M260.240295,276.323395 
	C250.764130,305.118500 241.417419,333.542633 232.074280,361.967987 
	C231.918686,362.441406 231.847626,362.945007 231.667664,363.407532 
	C230.624252,366.089172 230.325577,370.053894 226.049667,368.750580 
	C221.839752,367.467346 223.389359,363.950073 224.326324,361.199432 
	C240.835068,312.734985 257.402191,264.290436 273.958191,215.842087 
	C274.920593,213.025711 276.253662,209.970596 279.808807,211.391083 
	C283.370453,212.814178 282.042786,216.009552 281.061157,218.723770 
	C274.162231,237.799332 267.266693,256.876129 260.240295,276.323395 
z"/>
<path fill="#FFFAFA" opacity="1.000000" stroke="none" 
	d="
M276.052673,359.964172 
	C290.350769,317.862213 304.544342,276.140228 318.737854,234.418198 
	C319.166412,233.158478 319.246643,231.524765 320.104492,230.726898 
	C321.370209,229.549713 323.231812,228.292908 324.756287,228.389206 
	C325.644745,228.445328 326.973969,231.055618 327.018036,232.548798 
	C327.073853,234.439194 326.083618,236.382111 325.443939,238.268250 
	C310.488983,282.364868 295.510437,326.453522 280.575134,370.556824 
	C279.510040,373.701996 279.117432,377.131226 277.680054,380.070343 
	C276.959503,381.543640 274.588257,382.209656 272.963562,383.240784 
	C272.139465,381.484589 270.319458,379.495483 270.666077,378.013031 
	C272.063141,372.038391 274.129181,366.220154 276.052673,359.964172 
z"/>
<path fill="#FFF5F5" opacity="1.000000" stroke="none" 
	d="
M231.862274,228.946075 
	C221.462784,267.667877 209.222870,305.334473 193.686768,341.870697 
	C193.139648,341.688049 192.592529,341.505402 192.045410,341.322754 
	C205.179962,301.694061 218.314529,262.065338 231.449081,222.436661 
	C231.997528,222.587799 232.545975,222.738937 233.094437,222.890091 
	C232.716843,224.778763 232.339264,226.667419 231.862274,228.946075 
z"/>
<path fill="#FFF4F4" opacity="1.000000" stroke="none" 
	d="
M139.484406,314.488434 
	C138.510559,316.766357 137.702362,318.703796 136.894165,320.641235 
	C144.476303,288.665863 153.514297,257.216156 166.729034,227.108643 
	C159.252777,256.601746 151.179810,285.908203 139.484406,314.488434 
z"/>
<path fill="#FFF4F4" opacity="1.000000" stroke="none" 
	d="
M331.553772,253.743042 
	C325.872864,282.819489 315.200348,309.827118 304.367645,337.619446 
	C303.785950,330.816193 328.778809,251.585175 333.370239,245.771744 
	C332.678345,248.888107 332.182281,251.122284 331.553772,253.743042 
z"/>
<path fill="#FFF5F5" opacity="1.000000" stroke="none" 
	d="
M244.648911,343.725464 
	C242.541122,349.062531 240.589813,354.043182 238.638489,359.023834 
	C238.201096,358.855255 237.763687,358.686707 237.326279,358.518127 
	C241.785217,338.474670 247.658493,318.904419 258.166107,300.789825 
	C256.929962,305.379059 255.760056,309.987427 254.439728,314.552307 
	C253.009552,319.497070 251.535538,324.433502 249.902328,329.313904 
	C248.321304,334.038422 246.513550,338.687073 244.648911,343.725464 
z"/>
<path fill="#FFF5F5" opacity="1.000000" stroke="none" 
	d="
M182.656250,174.532501 
	C181.853912,176.135178 181.218689,177.420456 180.096329,179.691391 
	C183.550171,154.803192 195.240982,133.230560 214.359360,132.139862 
	C195.525009,140.751190 190.182281,158.212051 182.656250,174.532501 
z"/>
<path fill="#FFF4F4" opacity="1.000000" stroke="none" 
	d="
M275.963257,253.974060 
	C272.532593,261.017548 269.232422,267.704773 265.932281,274.392029 
	C268.253143,256.988922 276.842041,241.936874 283.168549,225.568604 
	C284.343079,230.496429 281.686890,240.646408 275.963257,253.974060 
z"/>
<path fill="#FFF4F4" opacity="1.000000" stroke="none" 
	d="
M299.878662,331.038574 
	C300.475372,330.263062 300.909241,329.797821 301.343079,329.332550 
	C301.704681,329.490143 302.066254,329.647736 302.427856,329.805298 
	C296.950287,345.204193 291.472748,360.603088 285.995178,376.001984 
	C285.489105,375.825500 284.983002,375.649017 284.476929,375.472534 
	C286.960358,359.901093 291.454041,344.998322 299.878662,331.038574 
z"/>
<path fill="#FFF4F4" opacity="1.000000" stroke="none" 
	d="
M153.956940,427.992004 
	C141.147827,422.517609 129.263840,416.307129 120.184776,405.849274 
	C114.922028,399.787262 113.496407,392.361298 116.871094,386.576294 
	C115.064087,397.284088 121.228386,403.565582 129.041153,408.586792 
	C139.651276,415.405945 150.506805,421.843262 161.258057,428.442719 
	C162.756729,429.362640 164.260986,430.273468 165.762665,431.188477 
	C165.569946,431.602386 165.377213,432.016296 165.184479,432.430206 
	C161.561829,430.993042 157.939178,429.555878 153.956940,427.992004 
z"/>
<path fill="#FFF4F4" opacity="1.000000" stroke="none" 
	d="
M117.381004,384.447632 
	C117.575493,384.434662 117.639275,384.525940 117.703049,384.617218 
	C117.552132,384.595428 117.401207,384.573639 117.381004,384.447632 
z"/>
</svg>